<?xml version="1.0" encoding="UTF-8"?>
<svg version="1.1" viewBox="0 0 1440 1440" width="360" height="360" xmlns="http://www.w3.org/2000/svg">
<path transform="translate(444,255)" d="m0 0h29l16 3 14 5 19 10 14 10 14 12 17 16 13 12 17 13 6 1 19-9 22-12 16-7 15-5 23-5 22-3 13-1h13l20 2 17 4 16 6 17 9 17 12 13 12 9 9 13 17 12 19 10 18 10 21 11 28 10 21 7 9 5 4 7 2h15l18-2h15l16 2 21 5 19 7 20 9 21 11 14 10 14 12 10 11 11 14 9 14 8 17 6 21 4 27v26l-3 19-4 15-8 19-8 14-9 10-9 6-13 5-16 3h-28l-17-3-23-6-15-6-16-9-17-13-11-9-15-12-10-6-9-3h-20l-15 4-12 5-8 4 2 4 9 10 8 13 6 13 2 8 1 9v24l-2 20-3 15-5 13-5 5-6 2-16-8-24-13-15-8-20-8-25-7-50-12-31-6-15-2h-26l-19 3-24 7-30 11-19 6-31 7-16 3h-6l-8-5-3-4-1-9 4-46 3-43 7-31 4-25 3-28 1-14v-10l-2-15-4-15-8-18-8-13-8-10-10-10-14-10-19-12-24-14-19-12-13-10-13-12-9-9-13-17-9-16-6-15-4-16-1-9v-20l3-17 6-16 8-14 8-10 7-7 18-13 17-9 18-6z" fill="#FCFCFC"/>
<path transform="translate(444,255)" d="m0 0h29l16 3 14 5 19 10 14 10 14 12 17 16 13 12 17 13 6 1 19-9 22-12 16-7 15-5 23-5 22-3 13-1h13l20 2 17 4 16 6 17 9 17 12 13 12 9 9 13 17 12 19 10 18 10 21 11 28 10 21 7 9 5 4 7 2h15l18-2h15l16 2 21 5 19 7 20 9 21 11 14 10 14 12 10 11 11 14 9 14 8 17 6 21 4 27v26l-3 19-4 15-8 19-8 14-9 10-9 6-13 5-16 3h-28l-17-3-23-6-15-6-16-9-17-13-11-9-15-12-10-6-9-3h-20l-15 4-12 5-8 4 2 4 9 10 8 13 6 13 2 8 1 9v24l-2 20-3 15-5 13-5 5-6 2-16-8-24-13-15-8-20-8-25-7-50-12-31-6-15-2h-26l-19 3-24 7-30 11-19 6-31 7-16 3h-6l-8-5-3-4-1-9 4-46 3-43 7-31 4-25 3-28 1-14v-10l-2-15-4-15-8-18-8-13-8-10-10-10-14-10-19-12-24-14-19-12-13-10-13-12-9-9-13-17-9-16-6-15-4-16-1-9v-20l3-17 6-16 8-14 8-10 7-7 18-13 17-9 18-6zm1 18-17 3-16 6-16 9-14 11-9 10-7 12-5 15-2 13v17l3 17 5 14 8 15 9 12 9 10 10 10 14 11 19 12 29 17 24 16 13 11 10 10 7 10 10 17 7 17 5 18 2 18-1 23-4 36v6l9-1 10-1 37-1 24-1 3-1-3-9-19-46-10-27-10-30-11-40-5-23-4-33-1-15 11 7 13 11 21 21 11 14 11 16 12 21 10 23 6 19 4 21 1 9v34l-3 25h20l23-1 3-33 5-21 6-16 11-20 10-13 6-5 2 15v25l-3 19-6 24-8 24v2l30 3 32 5 21 5 8 3 4-1 10-16 10-13 9-10 4-5 11-9 11-8 16-9 25-10 27-7 18-3 12-1h21l21 3 16 5 12 6 8 6h-14l-25 5-24 7-38 13-40 13-28 11-19 10-21 14-8 6 4 4 17 8 3 2 4-1 9-6 17-8 17-5 7-1h18l16 4 12 7 14 11 13 11 18 13 16 9 14 5 19 5 12 2h28l15-3 10-5 7-7 8-14 6-15 5-21 1-8v-27l-4-25-8-24-9-15-9-12-9-10-5-6-11-9-11-8-27-14-25-10-17-5-12-2-19-1-21 2h-17l-13-4-9-6-8-9-11-20-12-30-7-17-12-22-11-18-10-14-12-13-8-8-15-11-14-8-16-7-17-4-23-2-20 1-27 4-20 5-16 6-29 15-16 8-9 3h-7l-12-6-13-10-12-11-8-7-17-16-14-11-14-9-14-7-15-4-9-1z" fill="#040202"/>
<path transform="translate(681,69)" d="m0 0h74l35 3 38 5 30 6 32 8 27 8 26 9 28 11 26 12 16 8 23 12 23 14 17 11 19 13 18 14 11 8 41 14 26 11 20 11 13 10 10 9 11 11 11 14 13 17 12 18 13 21 10 18 8 16 7 16 5 16 2 11 1 19-2 16-5 16-6 12-8 8-14 7-13 3h-23l-20-4-16-6-17-9-13-10-14-13-7-8-11-12-8-10-14-18-12-18-11-18-10-19-7-19-5-21-4-27-2-27-1-33-11-9-20-14-24-15-21-12-29-15-22-10-28-11-22-8-35-10-38-9-31-5-37-4-17-1h-65l-46 5-34 5-33 8-29 8-29 10-28 11-21 9-19 10-26 14-23 14-21 14-19 14-16 13-13 11-11 9-41 41-9 11-8 9-11 14-10 13-12 17-16 25-15 26-14 27-14 31-14 38-9 29-9 36-6 31-4 31-3 45v44l3 38 2 17v13l-6 9-6 4-3 1h-10l-8-4-6-8-3-18-3-31-1-13v-60l3-41 5-38 6-30 7-29 9-31 14-39 11-26 17-35 10-19 12-20 7-11 10-15 12-17 22-28 11-13 7-8 11-12 7-7 5-6 8-7 16-16 8-7 11-9 16-13 13-10 18-13 17-11 21-13 29-16 31-16 40-16 31-11 36-10 39-9 42-6z" fill="#FFDD07"/>
<path transform="translate(1325,567)" d="m0 0 10 1 6 4 5 6 4 15 5 33 4 42 1 25v22l-2 46-3 31-7 40-8 37-11 38-12 33-11 27-14 29-10 20-14 24-14 22-9 13-8 11-12 16-13 16-11 13-9 10-14 15-17 17h-2l-1 3-8 7-11 10-11 9-16 13-16 12-19 13-15 10-29 17-18 10-16 8-26 12-26 10-29 10-28 9-28 7-28 5-48 6-46 4h-41l-50-4-35-4-22-4-60-15-35-12-27-11-27-12-28-14-24-14-18-11-22-15-19-14-7-5h-20l-16-4-16-8-11-9-12-14-14-19-11-15-13-18-28-38-13-18-14-19-13-18-12-16-13-18-14-19-13-18-10-14-3-6 2-6 4-4 7-2 6 4 8 10 13 18 28 38 13 18 14 19 13 18 15 20 10 14 13 18 12 16 13 18 10 14 4-1 9-7-2-5-16-23-14-20-11-16-24-34-13-19-12-17-14-20-11-16-10-14-16-23-9-13-6-11 1-5 7-6h7l5 5 8 10 8 12 12 17 9 13 12 17 16 23 14 20 16 23 14 20 16 23 28 40 4 4 15-12-1-4-13-18-12-17-39-54-13-19-10-13-10-14-12-17-26-36-12-17-10-15-2-4 1-6 6-5 7-1 7 6 13 18 12 17 13 18 12 17 13 18 10 14 13 18 10 14 13 18 12 17 11 15 12 17 13 18 5-3 9-7-7-11-13-18-13-19-28-40-8-12-10-14-9-13-14-20-11-16-7-10-11-16-14-20-10-15-3-6 2-6 4-4 9-1 5 4 12 17 11 16 96 138 14 20 16 23 26 38 5 12 2 8v24l-3 11-5 12-7 10-2 2 1 4 16 11 23 15 26 15 27 14 29 13 28 11 27 9 38 10 26 6 28 4 42 4 30 2h29l40-3 49-6 28-5 37-10 32-11 35-13 24-11 36-19 23-14 27-18 16-12 14-11 11-9 10-9 8-7 12-11 19-19 7-8 11-12 9-11 14-18 13-18 14-21 15-25 12-22 11-22 12-28 13-35 10-33 7-30 8-44 2-13 3-42v-62l-3-35-4-29-3-17v-13l5-8 8-5z" fill="#FD1011"/>
<path transform="translate(820,867)" d="m0 0h7l10 3 6 4 8 9 5 13 2 14-1 15-5 23-6 20-2 6 9 3 9 6 6 8 4 10 1 6v16l-2 21-1 5 4-4 6-13 4-19 8-17 6-8 11-10 13-8 13-4h8l9 2 9 6 6 8 4 10v15l-5 12-7 9-9 8-23 11-10 3 5 7 9 6 6 2 8-6 7-7 11-15 10-15 5-10 3-15 2-8 5-6 6-3 9 2 6 2 8-6 9-4h14l8 3 9 8 5 8 4 11 3 20 2 24 4 14 5 5 5-3 5-6 6-12 2-9 1-11v-33l4-6 3-3 3-1h8l5 3 4 5 2 7v33l-2 16-4 12-6 12-9 12-9 8-9 4-10 1-12-3-9-6-7-9-6-14-3-13-3-32-3-12-2-4-5 2-6 7-5 10-7 23-1 4-2 21-3 8-4 5-4 2h-8l-7-4-3-5-1-10h-2l-2 4-7 8-10 9-10 5-3 1h-16l-11-4-10-7-7-6-5-7h-3l-5 6-11 7-6 2h-12l-8-4-6-9-2-8v-23l2-22v-8l-3-7-6 1-9 14-8 16-12 30-5 8-4 3-3 1h-8l-7-4-5 2-9 7-10 6-13 5-13 3h-13l-13-4-9-6-5-5-7-10-3-7v-4l-5 5-9 12-8 7-7 4-4 1h-9l-8-4-5-6-4-11v-4l-2 1-7 14-9 11-6 4-6 2-8-1-9-6-7-11-5-12-4-18-3-22-2-19v-11l5-7 7-3 7 1 5 3 3 5 2 9 4 35 3 16v3l3-3 5-11 9-24 9-32 1-2-8 4-8 6-3 1h-7l-6-4-4-5v-10l6-8 10-7 11-5 4-1h7l4 1 5-25 4-10 6-6 9-1 8 4 4 6v7l-6 26-1 6 13-5 16-10 12-11 4-3 8-1 8 4 3 4 1 9-4 8-10 10-17 12-17 8-13 3h-7l-1 59 4-2 10-15 9-15 16-25 11-15 3-4h2l1-3 10-7 15-6 4-1h10l5 3 4 5 1 3v7l-4 7-12 13-10 11-10 15-6 14-2 7v11l4 8 5 3 4 1h7l13-4 15-9 12-11 4-4 1-5v-24l3-32 5-32 6-26 7-21 8-16 7-9 8-5zm4 31-5 11-6 18-6 27-5 32v5l3-1 11-23 9-27 4-19v-16l-2-7zm111 97-13 9-4 6-3 8v3l9-3 13-8 5-6 1-2v-6l-1-1z" fill="#D30C10"/>
<path transform="translate(693,677)" d="m0 0 31 1 24 2 35 5 25 6 19 8 16 9 11 8 10 9 8 9 8 13 4 11 1 8v25l-3 26-2 6-4-1-15-8-22-12-21-9-22-7-55-13-26-6-30-4h-25l-25 4-21 6-29 11-18 6-26 6-18 3-1-1 1-17 3-40 1-22 3-16 4-9 9-8 3-2 5-1 54-2 57-3z" fill="#FBFBFB"/>
<path transform="translate(561,845)" d="m0 0h11l7 3 5 5 4 8 1 7-3 8-10 16-16 23-13 19-12 19-14 25-9 17-13 28-1 4 5 1 8 6 7 10 9 19 5 15 6 25 4 15 5 8 9 6 12 5 12 3 12 2v3l-6 5-11 5-14 4-7 1h-10l-14-3-13-7-7-6-7-10-5-11-4-14-2-19v-31l-1-14h-2l-2 6-13 30-5 12v20l2 23v14l-6 9-5 4-5 2h-11l-6-3-5-5-4-7-2-9-1-9-1-21-1-59-1-36v-24l2-45 3-51 2-12 6-8 10-5h7l9 3 7 7 3 9v14l-5 81 3-4 8-16 10-19 16-27 19-28 13-18 12-19 8-7z" fill="#D30D11"/>
<path transform="translate(639,915)" d="m0 0 9 1 6 4 3 5v7l-6 26-1 6 13-5 16-10 12-11 4-3 8-1 8 4 3 4 1 9-4 8-10 10-17 12-17 8-13 3h-7l-1 59 4-2 10-15 9-15 16-25 11-15 3-4h2l1-3 10-7 15-6 4-1h10l5 3 4 5 1 3v7l-4 7-12 13-10 11-10 15-6 14-2 7v11l4 8 5 3 4 1h7l13-4 15-9 12-11 4-4 1-5 1-13 6-1 13 2h14l13 2 3 3-9 20-8 20-4 6-4 3-3 1h-8l-7-4-5 2-9 7-10 6-13 5-13 3h-13l-13-4-9-6-5-5-7-10-3-7v-4l-5 5-9 12-8 7-7 4-4 1h-9l-8-4-5-6-4-11v-4l-2 1-7 14-9 11-6 4-6 2-8-1-9-6-7-11-5-12-4-18-3-22-2-19v-11l5-7 7-3 7 1 5 3 3 5 2 9 4 35 3 16v3l3-3 5-11 9-24 9-32 1-2-8 4-8 6-3 1h-7l-6-4-4-5v-10l6-8 10-7 11-5 4-1h7l4 1 5-25 4-10 6-6z" fill="#D30C10"/>
<path transform="translate(561,845)" d="m0 0h11l7 3 5 5 4 8 1 7-3 8-10 16-16 23-13 19-12 19-14 25-9 17-4 9-10-2-8-1-25 1h-15l-20-2-6 2v-38l4-68 2-12 6-8 10-5h7l9 3 7 7 3 9v14l-5 81 3-4 8-16 10-19 16-27 19-28 13-18 12-19 8-7z" fill="#040303"/>
<path transform="translate(820,867)" d="m0 0h7l10 3 6 4 8 9 5 13 2 14-1 15-5 23-6 20-2 6 9 3 9 6 6 8 4 10 1 6v16l-1 10-5-5-8-3-14-1-1 2v-16l-3-7-6 1-9 14-4 7-16-3h-17l-12-2h-4v7h-1v-18l3-32 5-32 6-26 7-21 8-16 7-9 8-5zm4 31-5 11-6 18-6 27-5 32v5l3-1 11-23 9-27 4-19v-16l-2-7z" fill="#040303"/>
<path transform="translate(639,915)" d="m0 0 9 1 6 4 3 5v7l-6 26-1 6 13-5 16-10 12-11 4-3 8-1 8 4 3 4 1 9-4 8-10 10-17 12-17 8-13 3h-7v15l-7 4h-12l-13-2h-6l1-7 5-17-8 4-8 6-3 1h-7l-6-4-4-5v-10l6-8 10-7 11-5 4-1h7l4 1 5-25 4-10 6-6z" fill="#040303"/>
<path transform="translate(634,690)" d="m0 0h34l28 4 56 9 20 5 21 9 25 12 17 6 3 1v2l-10 1h-10l-21-3-28-5-49-5-26-4-49-11-14-2h-27l-16 3-10 4-2-1 11-7 14-8 16-6z" fill="#D3D1D2"/>
<path transform="translate(1109,983)" d="m0 0h8l5 3 4 5 2 7v33l-2 16-4 12-6 12-9 12-9 8-9 4-10 1-12-3-9-6-7-9-6-14-3-13-1-17 4 1 1-1h17l4 1 2-4 3 22 4 10 4 4 5-3 5-6 6-12 2-9 1-11v-33l4-6 3-3z" fill="#D30C10"/>
<path transform="translate(446,871)" d="m0 0h7l9 3 7 7 3 9v14l-4 65-2 12-16-1-6-1h-12l-7 1v-33l3-51 2-12 6-8z" fill="#040202"/>
<path transform="translate(974,577)" d="m0 0h32l17 3 16 6 21 11 9 7 3 2v8l-4 4-41 4-37 7-14 4-8 2-32 9-21 7-19 9-10 7-12 7-18 12-7 4-7-1-1-5 1-3 4-3 8-5 6-3 4-3 17-7 16-6 21-8 43-14 33-11h2l-2-3-8 3h-5l4-2 18-6 26-6 13-1h8l-10-7-12-6-19-5-16-2h-21l-20 2-23 5-20 6-23 10-15 9-13 10-7 6-7 8-10 12-7 10-9 14-5-1-3-2 3-1 1-4 12-17 11-14 7-7 6-7 8-7 14-11 13-8 17-8 18-6 25-5z" fill="#D3D1D2"/>
<path transform="translate(1026,974)" d="m0 0h14l8 3 9 8 5 8 4 11 3 20v7l-2 5-10-1h-11-4l-2-5-2-17-4-10-5 2-6 7-5 10-4 12-12-2-24-2-7-2 1-5 6-11 3-15 2-8 5-6 6-3 9 2 6 2 8-6z" fill="#040303"/>
<path transform="translate(935,966)" d="m0 0h8l9 2 9 6 6 8 4 10v15l-5 12-7 9-5 4-1-3-18-1h-35l-11-1-7 1v-7l4-13 9-17 8-8 12-9 12-6zm0 29-13 9-4 6-3 8v3l9-3 13-8 5-6 1-2v-6l-1-1z" fill="#050303"/>
<path transform="translate(550,433)" d="m0 0h9l13 5 15 9 13 11 8 9 11 16 15 26 8 15 9 20 7 19 4 14 6 31 1 8v28l-2 12-3 4h-3v-6l-1-2v-9h3l1-9v-23l-4-27-6-23-10-25-8-16-14-25-7-10-8-8v-2l-3-1-5-5-4-5-8-7-8-6v-2l-4-2-5-2-4 1-8-5 3 34 3 19 7 29 9 32 12 36 12 30 17 41v2l-7 1h-12v-1h11l-10-21-11-27-20-48-10-28-7-23-5-26-5-43v-10l1-2h2v-2z" fill="#D3D1D2"/>
<path transform="translate(731,958)" d="m0 0h10l5 3 4 5 1 3v7l-4 7-12 13-10 11-9 13h-2v-2l-12-3-15-1-13-2 7-12 9-13 9-12h2l1-3 10-7 15-6z" fill="#060504"/>
<path transform="translate(739,540)" d="m0 0h5l6 7 3 11 1 9v12l-2 19-5 25-8 24-6 11-2 1v-6l2-5h-4l10-40 2-15v-25l-2-15-8 7-9 13-8 14-8 20-5 21-3 33h-10l1-3v-18l3-19 5-17 9-19 13-22 10-14 8-8z" fill="#F7F7F7"/>
<path transform="translate(423,992)" d="m0 0h1l1 9 7-2 18 2h25l18-1 12 3 2 1-2 6-8 16-5 1-8-1-39-1h-13l-8-1-1-8z" fill="#960B10"/>
<path transform="translate(424,964)" d="m0 0h1v16l7-2h12l21 2 1-6h1v11l3-4 2-2 26 1 9 2 3 3 5 3-2 6-5 10-10-2-8-1-25 1h-15l-20-2-6 2z" fill="#120605"/>
<path transform="translate(1109,983)" d="m0 0h8l5 3 4 5 2 7v33l-2 4h-9l-10 1-2 1h-6v-44l4-6 3-3z" fill="#040202"/>
<path transform="translate(888 1e3)" d="m0 0 18 2 10 5h2l-3 10 16-8 9-6 14 2 8 5 4 5-7 9-5 4-1-3-18-1h-35l-11-1-7 1v-7l4-13z" fill="#120504"/>
<path transform="translate(889,1026)" d="m0 0 11 1h43l10 2 1 4-10 6-17 8-7 2-29-2-17-1 4-10 3-8z" fill="#960A0F"/>
<path transform="translate(570,444)" d="m0 0 5 2 4 3v2l4 2 10 9 5 4 5 5 9 10 4 4 10 15 13 23 10 22 7 19 5 20 4 27v23l-1 9-3 1v8l1 4-1 4 14 1v1h-20l3-25v-34l-3-20-4-17-6-17-9-20-12-21-11-15-8-10-9-10-18-18-10-8v-2z" fill="#F7F7F7"/>
<path transform="translate(773,995)" d="m0 0 2 4 3-1h11l3 1 22 1 12 3 5 5-2 5-7 12-16-3h-17l-12-2h-4v7h-1v-18z" fill="#120605"/>
<path transform="translate(564,985)" d="m0 0 7 1 5 3 3 5 2 9 1 9v15l-6 3h-20l-2-5-2-19v-11l5-7z" fill="#960A0F"/>
<path transform="translate(674,1012)" d="m0 0h9l4 1 15 1 12 4v2l2 1-6 12-3 7-4-1-20-1-12-2-8-2-1-3 10-17z" fill="#96090E"/>
<path transform="translate(739,540)" d="m0 0h5l6 7 3 11 1 9v12l-2 19-5 25-8 24-6 11-2 1v-6l2-5-2-1 2-5 2-1 4-10 4-16 4-21 1-27h-4l-3-15-1-9-1 2-5 3-12 16-6 9h-2l2-5 7-11 8-10zm-26 33 1 4-9 17-6 15-4 16-2 18-1 15-1 2 2 1h-5l1-3v-18l3-19 5-17 9-19z" fill="#D2D0D1"/>
<path transform="translate(970,1027)" d="m0 0 8 2 27 2 8 2-1 8-3 12-21-1-4-1h-8l-18-4 1-4 8-12z" fill="#960A0F"/>
<path transform="translate(615,1008)" d="m0 0 16 2h10l5-2v32l-1-3h-2v-2l-20-1-9-1-9-3h-3l2-9 4-12z" fill="#96090E"/>
<path transform="translate(697,990)" d="m0 0 13 2 12 5 6 5-2 4-10 14h-2v-2l-12-3-15-1-13-2 7-12 6-9z" fill="#120605"/>
<path transform="translate(777,1019)" d="m0 0 15 2h14l13 2 3 3-8 17h-21l-22-4 1-6 1-13z" fill="#96090E"/>
<path transform="translate(944,583)" d="m0 0h11l5 1v3l-23 4-25 7-24 10-16 9-14 11-7 6-7 8-10 12-7 10-9 14h-3l1-6 7-11 6-8 8-10 9-11 8-8 11-9 8-6 13-8 19-8 19-6z" fill="#F6F6F6"/>
<path transform="translate(991,1007)" d="m0 0 18 4 11 5-6 18-12-2-24-2-7-2 1-5 6-11 1-4z" fill="#120504"/>
<path transform="translate(614,987)" d="m0 0 20 1 7 1 5 3h1v15l-7 4h-12l-13-2h-6l1-7z" fill="#120605"/>
<path transform="translate(994,617)" d="m0 0 3 1-1 3-13 5-32 10-38 13-26 10-16 6-10 5-5 3-6 3-3-1 17-11 17-9 23-9 41-14 34-11 9-2z" fill="#F7F6F6"/>
<path transform="translate(1127,998)" d="m0 0h1v33l-2 4h-9l-10 1-2 1h-6v-11l1-13 7-2 9 1 10 5z" fill="#120605"/>
<path transform="translate(558,942)" d="m0 0 8 1 6 4 3 6v7l-5 8-7 3-8-1-7-6-2-9 4-8 4-4z" fill="#070505"/>
<path transform="translate(857 1e3)" d="m0 0 7 1 7 3 2 1v16l-1 10-5-5-8-3-14-1-1 2v-19z" fill="#130706"/>
<path transform="translate(576,548)" d="m0 0h2l8 26 11 30 14 34 10 24v2l-4 1-3-4-4-11-4-8-8-20-5-13-5-11-10-29-1-5-1-6z" fill="#F7F7F7"/>
<path transform="translate(1051,1013)" d="m0 0 8 1 8 3 1-2 1 16-2 5-10-1h-11-4l-2-5-1-15 1 2z" fill="#130706"/>
<path transform="translate(845,1024)" d="m0 0h14l10 4 3 5-1 11-3 3-19-2-6-3v-12z" fill="#960A0F"/>
<path transform="translate(1113,1067)" d="m0 0 4 2-9 13-7 7-12 6-10 1-12-3-9-6-7-9 3-1 11 5 5 3 8 2 7-3h8l5-3 5-1 2-4 3-4h2l2-4z" fill="#FD1213"/>
<path transform="translate(1117,1034)" d="m0 0h10v8l-2 9-5 2-6 1-9-1h-11l4-16 9-2z" fill="#970C11"/>
<path transform="translate(1068,1031)" d="m0 0h1l2 21-12 2-10-2-7-4-1-6v-8l4 1 1-1h17l4 1z" fill="#960B10"/>
<path transform="translate(902,1073)" d="m0 0 6 1v2h3v2l10 2 1 3 10 1 15-1h2l10-4h2l1-3 5-1v3l-10 9-10 5-3 1h-16l-11-4-10-7-7-6v-2z" fill="#FD1213"/>
<path transform="translate(564,985)" d="m0 0 7 1 5 3 3 5 2 9v5l-7-1-17-2h-5v-10l5-7z" fill="#160A09"/>
<path transform="translate(687,1076)" d="m0 0 7 1 9 7 5 2 6 2 10 2 1 4 3 1h-12l-13-4-9-6-5-5z" fill="#FD1011"/>
<path transform="translate(845,1070)" d="m0 0 5 4 8 3h15l5-1 1-2h5v3l-10 6-4 1h-12l-8-4-5-7z" fill="#FD1213"/>
<path transform="translate(703,591)" d="m0 0 2 1-3 10-4 11-3 12-2 18-1 15-1 2 2 1h-5l1-3v-18l3-19 5-17z" fill="#D3D1D2"/>
<path transform="translate(390,293)" d="m0 0 2 2-11 9-8 10-6 10-5 15-2 13v25h-1l-1-7v-25l5-20 8-14h2v-2h2l2-4 5-6 5-2v-3z" fill="#110504"/>
<path transform="translate(628,1079)" d="m0 0 9 3 9-1 10-1 2 2-8 5-4 1h-9l-8-4-3-4z" fill="#FD1011"/>
<path transform="translate(755,1080)" d="m0 0 5 1v3l-14 7-7 2-5-1v-3l12-5z" fill="#FD1112"/>
<path transform="translate(604,776)" d="m0 0h2l-1 3-7 1v2l-11 3-3 2-9 2-9 3-18 4-12 1v-1l27-6 19-6z" fill="#110504"/>
<path transform="translate(1e3 1076)" d="m0 0v3l-5 5-2 1h-8l-7-4 1-3h11z" fill="#FB1819"/>
<path transform="translate(658,637)" d="m0 0h1l2 15 1 4-1 4 14 1v1h-20z" fill="#EDECEC"/>
<path transform="translate(944,583)" d="m0 0h11l5 1v3l-8 1h-20l3-2h3v-2z" fill="#EFEEEF"/>
<path transform="translate(833,799)" d="m0 0 6 2 26 14 3 3-2 1-6-3-2-2-4-1v-2l-6-2-8-4v-2l-5-1-4-2z" fill="#100403"/>
<path transform="translate(783,783)" d="m0 0 9 1 21 6 10 4-4 1-8-2-4-2-8-2v-2h-7l-9-3z" fill="#110504"/>
<path transform="translate(557,437)" d="m0 0h2v2h-3l1 2 1 22-2-4-2-13-1-4 2-4z" fill="#FDFDFD"/>
<path transform="translate(864,664)" d="m0 0 2 1-5 5-5 3-6 3-3-1z" fill="#F2F1F1"/>
<path transform="translate(716,569)" d="m0 0 1 3-3 1zm-3 4 1 4-8 15h-2l2-7z" fill="#B2AFAF"/>
<path transform="translate(976,580)" d="m0 0h12v3l-26-1v-1z" fill="#FDFDFD"/>
<path transform="translate(572,1085)" d="m0 0h2v2l3-1 7 4v3l-2 1-9-6z" fill="#FB1819"/>
<path transform="translate(390,293)" d="m0 0 2 2-11 9-3 3-2-1 6-7 5-2v-3z" fill="#100403"/>
<path transform="translate(856,811)" d="m0 0 5 2 7 4-2 2-6-3-2-2-4-2z" fill="#110504"/>
</svg>
